<svg width="590" height="79" viewBox="0 0 590 79" fill="none" xmlns="http://www.w3.org/2000/svg">
<path d="M160.932 28.3362C160.397 28.6573 160.179 29.4373 160.447 30.0794C160.638 30.5357 161.02 30.7983 161.418 30.7983C161.58 30.7983 161.746 30.7542 161.901 30.6618C162.014 30.593 164.667 28.9628 164.667 25.5984C164.667 23.7602 163.858 22.7878 163.266 22.0793C162.735 21.4423 162.5 21.129 162.5 20.3983C162.5 19.6677 162.735 19.3545 163.266 18.7174C163.857 18.0088 164.667 17.0364 164.667 15.1982C164.667 11.8339 162.014 10.2037 161.901 10.136C161.371 9.81886 160.724 10.0749 160.455 10.7107C160.184 11.349 160.397 12.129 160.926 12.4579C160.941 12.467 162.5 13.4536 162.5 15.1982C162.5 15.9289 162.265 16.2421 161.734 16.8792C161.143 17.5877 160.333 18.5602 160.333 20.3983C160.333 22.2365 161.143 23.2089 161.734 23.9175C162.265 24.5544 162.5 24.8678 162.5 25.5984C162.5 27.343 160.941 28.3296 160.932 28.3362Z" fill="#E86A33"/>
<path d="M153.833 28.1985C153.833 29.9314 152.296 30.9155 152.259 30.9388C151.73 31.2625 151.514 32.0399 151.78 32.6795C151.971 33.1357 152.353 33.3984 152.751 33.3984C152.914 33.3984 153.079 33.3542 153.234 33.2619C153.347 33.193 156 31.5628 156 28.1985C156 26.3603 155.191 25.3879 154.599 24.6793C154.068 24.0424 153.833 23.729 153.833 22.9984C153.833 21.2537 155.391 20.267 155.401 20.2618C155.936 19.9407 156.154 19.1595 155.885 18.5172C155.619 17.8751 154.969 17.6124 154.432 17.9362C154.32 18.0038 151.667 19.634 151.667 22.9984C151.667 24.8365 152.476 25.809 153.067 26.5175C153.598 27.1544 153.833 27.4678 153.833 28.1985Z" fill="#E86A33"/>
<path d="M171.167 28.1984C171.167 29.9313 169.631 30.9155 169.594 30.9388C169.063 31.2625 168.847 32.0399 169.114 32.6795C169.305 33.1357 169.687 33.3984 170.085 33.3984C170.247 33.3984 170.413 33.3542 170.568 33.2619C170.681 33.193 173.334 31.5628 173.334 28.1984C173.334 26.3603 172.524 25.3879 171.933 24.6793C171.402 24.0424 171.167 23.729 171.167 22.9984C171.167 21.2537 172.725 20.267 172.734 20.2618C173.27 19.9407 173.487 19.1595 173.219 18.5172C172.95 17.8751 172.3 17.615 171.766 17.9362C171.652 18.0038 169 19.634 169 22.9984C169 24.8365 169.809 25.8089 170.401 26.5175C170.932 27.1544 171.167 27.4678 171.167 28.1984Z" fill="#E86A33"/>
<path d="M145.167 41.1983C145.908 41.1983 146.589 41.6534 146.992 42.4151C147.301 42.9987 147.937 43.1899 148.442 42.8493C149.291 42.2721 150.278 42.4424 150.956 43.1911C151.264 43.5292 151.705 43.6241 152.092 43.4407C152.477 43.2548 152.742 42.8206 152.77 42.3214C152.848 40.963 153.79 39.8982 154.917 39.8982C155.644 39.8982 156.319 40.335 156.722 41.0657C157.124 41.7937 158.127 41.7937 158.528 41.0657C159.267 39.7305 160.99 39.5433 161.916 40.7393C162.173 41.0708 162.553 41.2203 162.924 41.1293C163.292 41.041 163.598 40.729 163.728 40.3052C164.041 39.2834 164.853 38.5983 165.75 38.5983C166.944 38.5983 167.917 39.7643 167.916 41.1657C167.913 41.193 167.901 41.3178 167.898 41.3452C167.87 41.7846 168.03 42.2123 168.323 42.4788C168.614 42.7466 169.002 42.8181 169.347 42.6672C170.284 42.2617 171.085 42.5853 171.666 43.3394C171.923 43.6709 172.304 43.8191 172.674 43.7294C173.042 43.641 173.348 43.329 173.478 42.9052C173.791 41.8834 174.603 41.1983 175.5 41.1983C176.469 41.1983 177.325 41.9901 177.58 43.1237C177.66 43.4824 177.866 43.7827 178.142 43.9478C178.419 44.1142 178.742 44.1285 179.03 43.9908C180.016 43.5137 181.111 43.9753 181.659 45.0139C181.967 45.5989 182.604 45.7926 183.107 45.4495C184.038 44.8203 185.129 45.0933 185.779 45.9617C185.992 46.2476 186.289 46.3932 186.585 46.3932C186.844 46.3932 187.103 46.284 187.308 46.0605C187.754 45.5808 187.792 44.7592 187.392 44.2249C186.281 42.7416 184.483 42.1319 182.9 42.7352C181.964 41.5976 180.603 41.0218 179.262 41.2454C178.506 39.6412 177.079 38.5986 175.5 38.5986C174.18 38.5986 172.95 39.3356 172.142 40.5331C171.474 40.0949 170.714 39.8688 169.947 39.9013C169.466 37.66 167.766 35.9987 165.75 35.9987C164.431 35.9987 163.203 36.7332 162.395 37.9278C160.919 36.9568 158.939 37.1739 157.625 38.4414C156.867 37.7095 155.917 37.2987 154.917 37.2987C153.222 37.2987 151.734 38.4947 151.03 40.2392C150.147 39.8323 149.148 39.7867 148.234 40.1339C147.429 39.1589 146.336 38.5986 145.167 38.5986C144.569 38.5986 144.084 39.181 144.084 39.8986C144.084 40.6161 144.569 41.1983 145.167 41.1983Z" fill="#E86A33"/>
<path d="M193.917 48.9983H131.084C130.486 48.9983 130 49.5807 130 50.2983C130 53.8823 132.43 56.7983 135.417 56.7983H136.56C137.1 62.6405 141.24 67.1983 146.25 67.1983H178.75C183.761 67.1983 187.899 62.6405 188.439 56.7983H189.583C192.57 56.7983 195 53.8824 195 50.2983C195 49.5807 194.516 48.9983 193.917 48.9983ZM189.583 54.1982H187.417C186.817 54.1982 186.333 54.7807 186.333 55.4982C186.333 60.5162 182.931 64.5981 178.75 64.5981H146.25C142.436 64.5981 139.271 61.2025 138.744 56.7981H183.083C183.682 56.7981 184.167 56.2157 184.167 55.4982C184.167 54.7807 183.682 54.1982 183.083 54.1982H135.417C134.004 54.1982 132.8 53.1114 132.352 51.5982H192.648C192.201 53.1114 190.996 54.1982 189.583 54.1982Z" fill="#E86A33"/>
<path d="M130.657 38.493L145.823 46.293C145.962 46.3645 146.107 46.3996 146.249 46.3996C146.67 46.3996 147.07 46.1032 147.246 45.6105C147.482 44.9501 147.226 44.1856 146.677 43.9037L131.51 36.1037C130.96 35.8203 130.322 36.1271 130.088 36.7862C129.852 37.4466 130.107 38.2109 130.657 38.493Z" fill="#E86A33"/>
<path d="M4.26562 32.875H15.3516C17.7109 32.875 19.7578 33.2578 21.4922 34.0234C23.2266 34.7891 24.5625 35.9219 25.5 37.4219C26.4531 38.9062 26.9297 40.7344 26.9297 42.9062C26.9297 44.5156 26.5859 45.9766 25.8984 47.2891C25.2266 48.6016 24.2969 49.7031 23.1094 50.5938C21.9219 51.4688 20.5469 52.0703 18.9844 52.3984L17.9766 52.7734H6.14062L6.09375 50.3125H16.0078C17.7891 50.3125 19.2734 49.9688 20.4609 49.2812C21.6484 48.5938 22.5391 47.6875 23.1328 46.5625C23.7422 45.4219 24.0469 44.2031 24.0469 42.9062C24.0469 41.3594 23.7109 40.0234 23.0391 38.8984C22.3828 37.7578 21.4062 36.8828 20.1094 36.2734C18.8125 35.6641 17.2266 35.3594 15.3516 35.3594H7.14844V67H4.26562V32.875ZM25.3359 67L16.5 51.7422L19.5938 51.7188L28.4062 66.6953V67H25.3359ZM46.0547 34.9141L34.2422 67H31.2422L44.1328 32.875H46.2188L46.0547 34.9141ZM56.7891 67L44.9531 34.9141L44.7891 32.875H46.875L59.7891 67H56.7891ZM54.6797 54.9531V57.4375H36.5625V54.9531H54.6797ZM90.2578 32.875V67H87.3516L67.7344 37.8438V67H64.8516V32.875H67.7344L87.3984 62.0312V32.875H90.2578ZM108.305 67H100.57L100.617 64.5391H108.305C110.758 64.5391 112.867 63.9922 114.633 62.8984C116.414 61.7891 117.789 60.2578 118.758 58.3047C119.727 56.3516 120.211 54.0859 120.211 51.5078V48.3203C120.211 46.3516 119.93 44.5703 119.367 42.9766C118.82 41.3828 118.031 40.0234 117 38.8984C115.969 37.7578 114.734 36.8828 113.297 36.2734C111.875 35.6641 110.281 35.3594 108.516 35.3594H100.43V32.875H108.516C110.641 32.875 112.586 33.2422 114.352 33.9766C116.133 34.6953 117.672 35.7422 118.969 37.1172C120.281 38.4766 121.289 40.1094 121.992 42.0156C122.711 43.9219 123.07 46.0469 123.07 48.3906V51.5078C123.07 53.8516 122.711 55.9766 121.992 57.8828C121.289 59.7891 120.281 61.4219 118.969 62.7812C117.656 64.1406 116.102 65.1875 114.305 65.9219C112.508 66.6406 110.508 67 108.305 67ZM101.859 32.875V67H98.9766V32.875H101.859ZM201.633 32.875H204.539L217.148 62.9219L229.781 32.875H232.664L218.25 67H216.047L201.633 32.875ZM200.742 32.875H203.297L203.602 52.0938V67H200.742V32.875ZM231.047 32.875H233.602V67H230.719V52.0938L231.047 32.875ZM254.883 32.875H257.789L270.398 62.9219L283.031 32.875H285.914L271.5 67H269.297L254.883 32.875ZM253.992 32.875H256.547L256.852 52.0938V67H253.992V32.875ZM284.297 32.875H286.852V67H283.969V52.0938L284.297 32.875ZM316.734 64.5391V67H297.539V64.5391H316.734ZM298.406 32.875V67H295.523V32.875H298.406ZM314.344 48.1797V50.6406H297.539V48.1797H314.344ZM316.617 32.875V35.3594H297.539V32.875H316.617ZM334.055 34.9141L322.242 67H319.242L332.133 32.875H334.219L334.055 34.9141ZM344.789 67L332.953 34.9141L332.789 32.875H334.875L347.789 67H344.789ZM342.68 54.9531V57.4375H324.562V54.9531H342.68ZM372.586 64.5391V67H354.891V64.5391H372.586ZM355.734 32.875V67H352.852V32.875H355.734Z" fill="black"/>
</svg>
